name C:\Users\u0150099\Documents\master_thesis\3dpredictsim\Results\debug\Fal_s1_mtp_sc_cspx10_oy_TrackAnkleQSubtQ_MTPp_k17_d05_ig21.mot
datacolumns 126
datarows 4
range 1.10545289 1.13861648
endheader
time	pelvis_tilt	pelvis_list	pelvis_rotation	pelvis_tx	pelvis_ty	pelvis_tz	hip_flexion_l	hip_adduction_l	hip_rotation_l	hip_flexion_r	hip_adduction_r	hip_rotation_r	knee_angle_l	knee_angle_r	ankle_angle_l	ankle_angle_r	subtalar_angle_l	subtalar_angle_r	mtj_angle_l	mtj_angle_r	mtp_angle_l	mtp_angle_r	lumbar_extension	lumbar_bending	lumbar_rotation	arm_flex_l	arm_add_l	arm_rot_l	arm_flex_r	arm_add_r	arm_rot_r	elbow_flex_l	elbow_flex_r	glut_med1_l/activation	glut_med2_l/activation	glut_med3_l/activation	glut_min1_l/activation	glut_min2_l/activation	glut_min3_l/activation	semimem_l/activation	semiten_l/activation	bifemlh_l/activation	bifemsh_l/activation	sar_l/activation	add_long_l/activation	add_brev_l/activation	add_mag1_l/activation	add_mag2_l/activation	add_mag3_l/activation	tfl_l/activation	pect_l/activation	grac_l/activation	glut_max1_l/activation	glut_max2_l/activation	glut_max3_l/activation	iliacus_l/activation	psoas_l/activation	quad_fem_l/activation	gem_l/activation	peri_l/activation	rect_fem_l/activation	vas_med_l/activation	vas_int_l/activation	vas_lat_l/activation	med_gas_l/activation	lat_gas_l/activation	soleus_l/activation	tib_post_l/activation	flex_dig_l/activation	flex_hal_l/activation	tib_ant_l/activation	per_brev_l/activation	per_long_l/activation	per_tert_l/activation	ext_dig_l/activation	ext_hal_l/activation	ercspn_l/activation	intobl_l/activation	extobl_l/activation	glut_med1_r/activation	glut_med2_r/activation	glut_med3_r/activation	glut_min1_r/activation	glut_min2_r/activation	glut_min3_r/activation	semimem_r/activation	semiten_r/activation	bifemlh_r/activation	bifemsh_r/activation	sar_r/activation	add_long_r/activation	add_brev_r/activation	add_mag1_r/activation	add_mag2_r/activation	add_mag3_r/activation	tfl_r/activation	pect_r/activation	grac_r/activation	glut_max1_r/activation	glut_max2_r/activation	glut_max3_r/activation	iliacus_r/activation	psoas_r/activation	quad_fem_r/activation	gem_r/activation	peri_r/activation	rect_fem_r/activation	vas_med_r/activation	vas_int_r/activation	vas_lat_r/activation	med_gas_r/activation	lat_gas_r/activation	soleus_r/activation	tib_post_r/activation	flex_dig_r/activation	flex_hal_r/activation	tib_ant_r/activation	per_brev_r/activation	per_long_r/activation	per_tert_r/activation	ext_dig_r/activation	ext_hal_r/activation	ercspn_r/activation	intobl_r/activation	extobl_r/activation	
          1.10545289	         -2.92767691	         -0.66368922	          4.79574434	          1.47025235	          0.90348874	         -0.00651961	        -19.92318782	          1.25159287	          9.28129868	         29.06486239	          1.16384191	         -1.34598372	         -4.77636667	         -8.09179318	          5.52778155	          1.96492821	          5.74140804	         -1.62624712	         18.33604151	          0.27684317	         -2.73111569	         -0.36411283	         -1.48159662	          4.13768920	        -14.42622622	         19.38604943	         -7.37064772	        -13.47814296	          7.25654183	         36.03143557	         23.18145630	         86.51662706	         86.51662706	          0.31218976	          0.11646816	          0.08303319	          0.44706360	          0.27928296	          0.14185825	          0.05000183	          0.05000031	          0.05000024	          0.09390972	          0.11834618	          0.05000097	          0.05000019	          0.05000030	          0.05000111	          0.05000083	          0.67604382	          0.05000169	          0.05000072	          0.05000431	          0.05000185	          0.05000131	          0.43460532	          0.76576141	          0.05000021	          0.05000098	          0.05921344	          0.28358252	          0.05000053	          0.05000047	          0.05000053	          0.38053444	          0.47815952	          0.27876774	          0.38137970	          0.51612080	          0.55736609	          0.05921209	          0.09391535	          0.16446049	          0.05000010	          0.05000004	          0.05000238	          0.05000001	          0.05000003	          0.05000006	          0.05921934	          0.05005257	          0.05000778	          0.05000599	          0.05000297	          0.05001165	          0.20445056	          0.05931693	          0.28281400	          0.05283070	          0.05000119	          0.11625751	          0.12599146	          0.13816946	          0.15249879	          0.12830759	          0.05000080	          0.05010848	          0.07109121	          0.05921238	          0.11840513	          0.05000140	          0.06019762	          0.05529772	          0.11259419	          0.05000083	          0.05000063	          0.05000012	          0.05000098	          0.05000094	          0.05000072	          0.06916541	          0.05000035	          0.05350843	          0.06089703	          0.05029389	          0.06037220	          0.35081975	          0.13241967	          0.16978240	          0.13497525	          0.52317412	          0.17286730	          0.06413115	          0.10100237	          0.10901772	
          1.11650742	         -2.93017646	         -0.85696900	          5.10273942	          1.48797171	          0.90288152	         -0.00611836	        -19.74857104	          0.93389640	          8.97663483	         28.55510555	          1.59905774	         -1.14848388	         -6.91941663	         -7.83470641	          4.48848656	          1.65098932	          6.28811452	         -1.96923571	         20.05734521	          0.36499028	         -2.55518532	         -0.05862225	         -1.61162960	          3.75541007	        -14.37814297	         19.30399583	         -8.32573406	        -13.45439664	          7.00228051	         37.47796097	         22.84900211	         86.51662706	         86.51662706	          0.26361994	          0.09834828	          0.07011508	          0.37751040	          0.23583270	          0.11978825	          0.05000123	          0.05000019	          0.05000013	          0.07929944	          0.09993422	          0.12456845	          0.10790505	          0.05000330	          0.05000308	          0.05000067	          0.63060648	          0.09251707	          0.05000206	          0.05000130	          0.05000080	          0.05000084	          0.36699030	          0.70779821	          0.05000026	          0.05000078	          0.05000197	          0.25077887	          0.07023692	          0.14569296	          0.05176490	          0.32133161	          0.40376838	          0.23539758	          0.36329617	          0.44691164	          0.49876033	          0.05000001	          0.10132984	          0.15986781	          0.05000011	          0.05000002	          0.05000008	          0.05000013	          0.05000007	          0.05000004	          0.05000640	          0.05000118	          0.05000027	          0.05921202	          0.05921156	          0.05000144	          0.18518801	          0.05008862	          0.25281520	          0.05000036	          0.05000446	          0.09817132	          0.14213737	          0.11667847	          0.13967318	          0.15521467	          0.05000027	          0.07015865	          0.06003151	          0.05000083	          0.17607084	          0.18250022	          0.05407371	          0.05000056	          0.09851912	          0.09844347	          0.06109808	          0.05549596	          0.07013097	          0.07037648	          0.07012192	          0.06094064	          0.05000277	          0.05073775	          0.05142356	          0.05000128	          0.05098303	          0.40910197	          0.19833347	          0.16793566	          0.23444393	          0.56092801	          0.23667234	          0.05706826	          0.08528862	          0.09205696	
          1.12756195	         -2.92737190	         -1.05920536	          5.38958288	          1.50595442	          0.90230766	         -0.00568884	        -19.45338329	          0.61526440	          8.64455665	         28.06693234	          2.02491744	         -0.91051989	         -9.24232411	         -8.38516618	          3.17671366	          0.94513401	          6.76704034	         -2.36171354	         21.84618024	          0.46349221	         -2.36384010	          0.25915369	         -1.73418735	          3.30186562	        -14.31937965	         19.15060612	         -9.27809472	        -13.45168644	          7.00023143	         38.91115293	         22.48376361	         86.51662706	         86.51662706	          0.22260649	          0.08304747	          0.05921215	          0.31877813	          0.19914234	          0.10115185	          0.05000230	          0.05000046	          0.05000268	          0.06696220	          0.08438672	          0.17519701	          0.22891497	          0.05921467	          0.05921855	          0.09080541	          0.57581206	          0.07812384	          0.05013218	          0.05921293	          0.05921277	          0.05921276	          0.30989467	          0.63405284	          0.05921226	          0.05921249	          0.05921177	          0.21176321	          0.13791523	          0.13791519	          0.12643101	          0.27133945	          0.34095087	          0.19877488	          0.31478075	          0.37738216	          0.42116443	          0.05000001	          0.16133717	          0.18003320	          0.05000003	          0.05000001	          0.05000009	          0.07319050	          0.05921213	          0.05921208	          0.05000006	          0.05000017	          0.12311207	          0.05000011	          0.05000010	          0.05000020	          0.15637684	          0.05000038	          0.21348271	          0.05000009	          0.05000029	          0.08289823	          0.15433409	          0.23198434	          0.22046166	          0.19254244	          0.05000053	          0.05924702	          0.12948598	          0.14227537	          0.21579635	          0.19780031	          0.05921090	          0.05000424	          0.27131708	          0.08312801	          0.05159268	          0.05921211	          0.05922028	          0.05942759	          0.05921265	          0.05921218	          0.05921235	          0.05921212	          0.05921213	          0.05921210	          0.05921220	          0.43686012	          0.24269761	          0.16849024	          0.47494221	          0.56644775	          0.19985147	          0.05000000	          0.07201958	          0.07773492	
          1.13861648	         -2.92083381	         -1.28922635	          5.65102759	          1.52400040	          0.90180055	         -0.00524332	        -19.01927356	          0.28594604	          8.29212819	         27.61269136	          2.41132407	         -0.63038256	        -11.73623266	         -9.47257780	          1.54834076	         -0.12860971	          7.11291378	         -2.76398275	         23.68915080	          0.36764066	         -2.17179730	          0.60672371	         -1.84711756	          2.81146218	        -14.24825445	         18.96284853	        -10.17985573	        -13.47228138	          7.23546014	         40.31341816	         22.04841762	         86.51662706	         86.51662706	          0.19350513	          0.07012712	          0.05000006	          0.32016688	          0.16816020	          0.08541487	          0.05000457	          0.05000020	          0.05000010	          0.05654440	          0.07125810	          0.19730357	          0.20657815	          0.05000237	          0.05000624	          0.07667834	          0.65253389	          0.06597084	          0.05000038	          0.05000128	          0.05000088	          0.05000084	          0.26168191	          0.60500562	          0.05000016	          0.05000044	          0.05000005	          0.17881751	          0.11645869	          0.11645865	          0.10676115	          0.22912498	          0.28790639	          0.16784986	          0.26580787	          0.31866986	          0.35564058	          0.05000001	          0.22624774	          0.17286045	          0.05000074	          0.05000032	          0.05000021	          0.11024096	          0.05000003	          0.05000006	          0.33501278	          0.35703920	          0.40557229	          0.31739161	          0.29310585	          0.23756907	          0.13204805	          0.12284055	          0.18026949	          0.07012241	          0.05921151	          0.07000112	          0.13032312	          0.19589275	          0.18616281	          0.20973138	          0.05000038	          0.05002982	          0.10934162	          0.32586806	          0.30980067	          0.24613937	          0.05000012	          0.05000013	          0.22910643	          0.07019549	          0.08457858	          0.05000004	          0.05000694	          0.05018200	          0.05000050	          0.05000007	          0.05000021	          0.05000002	          0.05000004	          0.05000013	          0.05000015	          0.64374369	          0.28272076	          0.16356738	          0.69771598	          0.72829218	          0.53934162	          0.06659886	          0.08201052	          0.06564107	
